<svg width="137" height="24" viewBox="0 0 137 24" fill="none" xmlns="http://www.w3.org/2000/svg">
<path fill-rule="evenodd" clip-rule="evenodd" d="M37.1795 19.4824H42.8799L44.1491 23.7986H46.9994L42.3902 9.24846C42.2563 8.7612 41.9222 8.51758 41.3879 8.51758H38.6715C38.1372 8.51758 37.8031 8.7612 37.6692 9.24846L33.0601 23.7986H35.9103L37.1795 19.4824ZM40.6753 11.9292L42.2114 17.2004H37.8488L39.3841 11.9292L39.74 10.6217H40.3415C40.3562 10.6959 40.4675 11.1317 40.6753 11.9292Z" fill="#0977BE"/>
<path fill-rule="evenodd" clip-rule="evenodd" d="M56.7962 23.7982H59.7574L58.3772 19.0142C58.2287 18.3494 57.9612 17.8326 57.5749 17.4639C57.2326 17.1187 56.8018 16.8732 56.3293 16.7542V16.6429C57.3534 16.513 58.088 16.134 58.5331 15.506C58.9782 14.878 59.2008 13.9733 59.2008 12.792C59.2008 11.0942 58.7962 9.92396 57.9871 9.28133C57.1779 8.6387 55.8012 8.31738 53.857 8.31738C51.4524 8.31738 49.5893 8.38397 48.2676 8.51716V23.7982H51.0296V17.6621L53.7909 17.684C54.6964 17.684 55.29 18.142 55.5719 19.058L56.7962 23.7982ZM53.7901 15.4061H51.0288V10.5993H53.7909C54.7878 10.5993 55.4679 10.7618 55.8314 11.0866C56.1949 11.4114 56.3767 12.0389 56.3767 12.969C56.3788 13.8991 56.1968 14.5342 55.8306 14.8742C55.4644 15.2142 54.7842 15.3915 53.7901 15.4061Z" fill="#0977BE"/>
<path d="M65.8588 16.9126H64.3447C64.4508 17.4077 64.5031 17.9128 64.5006 18.419V23.7983H61.7173V8.51725H64.5006V13.0138C64.5054 13.6075 64.4532 14.2003 64.3447 14.7841H65.8588L70.0672 8.51562H73.0953L68.9538 14.6737C68.6715 15.1058 68.3263 15.4939 67.9295 15.8252V15.8918C68.3959 16.2627 68.8015 16.7035 69.1318 17.1985L73.3851 23.7983H70.2671L65.8588 16.9126Z" fill="#0977BE"/>
<path fill-rule="evenodd" clip-rule="evenodd" d="M77.304 19.4827H83.0044L84.2737 23.7989H87.1239L82.5188 9.24553C82.3855 8.75827 82.0514 8.51465 81.5165 8.51465H78.796C78.2617 8.51465 77.9276 8.75827 77.7937 9.24553L73.1846 23.7989H76.0348L77.304 19.4827ZM80.7998 11.9295L82.336 17.2007H77.9717L79.5086 11.9295L79.8645 10.622H80.466C80.4802 10.6962 80.5914 11.132 80.7998 11.9295Z" fill="#0977BE"/>
<path fill-rule="evenodd" clip-rule="evenodd" d="M88.3921 8.51716V23.7982C90.4256 23.933 92.3407 24.0001 94.1374 23.9996C96.4707 23.9996 98.0999 23.4311 99.0249 22.2942C99.95 21.1573 100.412 19.1119 100.412 16.1581C100.416 13.2048 99.9532 11.1597 99.0249 10.0228C98.0966 8.88584 96.4674 8.31738 94.1374 8.31738C92.3412 8.31738 90.4261 8.38397 88.3921 8.51716ZM91.1754 21.6307V10.6424C91.46 10.6435 91.9252 10.6402 92.5711 10.6326C93.217 10.6251 93.7405 10.6213 94.1415 10.6213C95.4001 10.6213 96.2707 11.02 96.7534 11.8175C97.236 12.6149 97.4774 14.0621 97.4774 16.1589C97.4774 18.2562 97.2398 19.6999 96.7648 20.4898C96.2898 21.2796 95.414 21.6746 94.1374 21.6746C93.3212 21.6746 92.3339 21.66 91.1754 21.6307Z" fill="#0977BE"/>
<path d="M112.574 21.565L112.707 23.6691C111.356 23.7876 109.1 23.8466 105.938 23.8461C104.928 23.8461 104.13 23.5879 103.544 23.0714C102.958 22.5549 102.659 21.8459 102.646 20.9445V11.3741C102.661 10.4732 102.96 9.76425 103.544 9.24722C104.129 8.73019 104.927 8.47168 105.938 8.47168C109.1 8.47168 111.357 8.53096 112.707 8.64953L112.574 10.7756H106.562C106.161 10.7756 105.875 10.8722 105.705 11.0639C105.535 11.2555 105.449 11.5877 105.449 12.0603V14.7402H111.75V16.8662H105.449V20.277C105.449 20.7496 105.534 21.0818 105.705 21.2734C105.875 21.4659 106.161 21.5617 106.562 21.5617L112.574 21.565Z" fill="#0977BE"/>
<path d="M127.069 8.51758H129.941C130.639 8.51758 131.003 8.87923 131.033 9.60253L131.656 23.7986H128.917L128.405 10.7516H127.982L125.332 20.919C125.169 21.5383 124.783 21.8483 124.174 21.8488H122.037C121.414 21.8493 121.021 21.5405 120.858 20.9222L118.164 10.7549H117.785L117.296 23.8019H114.579L115.158 9.60253C115.187 8.87977 115.551 8.51812 116.249 8.51758H119.144C119.753 8.51758 120.131 8.8278 120.279 9.44823L122.462 17.7315C122.491 17.8344 122.647 18.5284 122.929 19.8137H123.263C123.426 18.9578 123.582 18.2564 123.731 17.7096L125.912 9.44742C126.075 8.82752 126.46 8.51758 127.069 8.51758Z" fill="#0977BE"/>
<path d="M137 23.7986H134.217V8.51758H137V23.7986Z" fill="#0977BE"/>
<path d="M12.8607 11.0831L11.1118 14.0339C10.4919 15.0785 9.87241 16.1231 9.25333 17.1677C8.57721 18.3071 7.90109 19.4468 7.22497 20.5867C6.65449 21.5477 6.08401 22.5102 5.51353 23.4741C5.40197 23.6622 5.2042 23.9994 4.88727 23.9994H0.280334C0.0407332 23.9994 -0.106324 23.7656 0.0939779 23.4691C0.331044 23.0705 0.567264 22.6715 0.80264 22.272C1.29536 21.4434 1.78851 20.6144 2.28208 19.785C2.83143 18.8608 3.37888 17.9359 3.92443 17.0103C4.43152 16.1538 4.94009 15.2972 5.45014 14.4406C6.02147 13.4762 6.59237 12.5117 7.16285 11.5469C7.7122 10.618 8.26155 9.68892 8.8109 8.75965C9.35687 7.84039 9.90326 6.92114 10.4501 6.00189C10.8564 5.31621 11.2589 4.6274 11.6646 3.9411C12.2122 3.016 12.7542 2.08776 13.3126 1.16955C13.525 0.820446 13.3266 1.1495 13.9515 0.112832C13.9931 0.0421904 14.0698 -0.000903258 14.1525 1.43679e-05H14.3794C14.4652 0.000385807 14.5443 0.0457138 14.5873 0.119099C15.1895 1.15827 15.1179 1.03041 15.2003 1.17018C15.7707 2.13414 16.3412 3.09789 16.9117 4.06143C17.2523 4.63555 17.5929 5.20966 17.9335 5.78378C18.6231 6.94914 19.313 8.1145 20.0031 9.27986C20.6078 10.299 21.2129 11.3179 21.8185 12.3366C22.3205 13.1827 22.8216 14.0293 23.322 14.8762C23.865 15.7917 24.4086 16.7072 24.9529 17.6227C25.5124 18.5658 26.0713 19.5095 26.6295 20.4538C27.2025 21.4202 27.7759 22.3867 28.3498 23.3532C28.54 23.6359 28.4766 24 28.1007 24H23.3822L23.3321 23.9937C23.3116 23.9871 23.2903 23.9833 23.2687 23.9825C22.2634 23.9825 21.2579 23.985 20.2522 23.99C20.2218 23.9911 20.1915 23.994 20.1615 23.9987H20.1381H10.0152C9.7693 23.9987 9.69831 23.7562 9.8422 23.5099C10.2453 22.8204 10.6529 22.131 11.0592 21.4416L12.6965 18.6637C13.0984 17.9835 13.4998 17.3028 13.9008 16.6218L13.9687 16.5071C14.0028 16.4486 14.0659 16.4128 14.1341 16.413H14.4225C14.4904 16.4129 14.5532 16.4485 14.5873 16.5064L14.6241 16.5691C14.9207 17.0605 15.2091 17.5569 15.5007 18.052C15.8515 18.6487 16.202 19.2452 16.5523 19.8414C16.573 19.8832 16.6176 19.9081 16.6645 19.9041C18.0362 19.9008 19.4077 19.8987 20.7789 19.8978C20.8043 19.8978 20.8296 19.8935 20.8696 19.8897L14.2571 8.7446" fill="#0977BE"/>
</svg>
